<?xml version="1.0" encoding="UTF-8" standalone="no"?>
<!DOCTYPE svg PUBLIC "-//W3C//DTD SVG 1.1//EN" "http://www.w3.org/Graphics/SVG/1.1/DTD/svg11.dtd">
<svg width="100%" height="100%" viewBox="0 0 100 100" version="1.1" xmlns="http://www.w3.org/2000/svg" xmlns:xlink="http://www.w3.org/1999/xlink" xml:space="preserve" xmlns:serif="http://www.serif.com/" style="fill-rule:evenodd;clip-rule:evenodd;stroke-linejoin:round;stroke-miterlimit:2;">
    <g transform="matrix(-1,0,0,1,99.999,0)">
        <path d="M64.095,32.328C64.773,33.304 65.845,33.834 66.903,33.834C67.508,33.837 68.1,33.656 68.6,33.314L73.589,29.885C74.252,29.425 74.704,28.718 74.843,27.923C74.998,27.015 74.788,26.082 74.259,25.328C73.201,23.805 71.181,23.362 69.753,24.341L64.763,27.77C64.1,28.229 63.648,28.936 63.51,29.731C63.35,30.614 63.563,31.562 64.095,32.328ZM65.727,30.137C65.759,29.933 65.872,29.749 66.04,29.628L71.03,26.199C71.156,26.114 71.305,26.07 71.457,26.073C71.798,26.073 72.172,26.27 72.41,26.614C72.602,26.892 72.683,27.222 72.628,27.519C72.597,27.724 72.484,27.908 72.315,28.029L67.328,31.458C66.926,31.732 66.294,31.543 65.946,31.043C65.756,30.782 65.678,30.456 65.727,30.137ZM83.103,79.309C84.292,77.27 84.918,74.952 84.916,72.592C84.916,67.925 82.515,63.808 78.878,61.395L81.537,61.395L81.537,59.142L71.4,59.142C69.173,59.142 67.072,59.684 65.218,60.637L61.432,54.612C61.715,54.257 61.994,53.904 62.269,53.553L65.781,53.553C67.627,53.551 69.146,52.032 69.148,50.186C69.146,48.589 68.009,47.201 66.443,46.885C66.64,46.359 66.789,45.817 66.887,45.264L66.941,45.248L66.985,44.453L66.985,44.451L67.073,42.863L66.943,42.901C66.934,42.818 66.919,42.733 66.906,42.65L83.735,31.085L75.676,19.482L76.079,17.271L73.861,16.868L72.846,15.407C71.788,13.891 69.674,13.506 68.149,14.552L55.174,23.468C54.457,23.96 53.958,24.713 53.786,25.566C51.962,24.322 49.779,24.36 48.306,24.387C48.395,24.049 48.46,23.701 48.492,23.341L48.59,23.341L48.487,22.309C48.484,22.285 48.484,22.261 48.482,22.238L48.366,21.089L48.28,21.089C47.618,18.578 45.522,16.787 43.069,16.787C40.616,16.787 38.519,18.578 37.857,21.089L34.327,21.089L34.327,23.342L37.644,23.342C37.877,25.928 39.624,28.031 41.9,28.577L41.963,28.891C41.971,28.929 42.141,29.763 42.476,30.911L41.085,33.953L41.084,33.953L38.954,38.614L34.94,40.804L34.939,40.804L34.319,41.143L32.962,41.883L31.515,42.673L31.49,42.687C30.398,43.318 29.724,44.486 29.724,45.747C29.724,47.686 31.319,49.281 33.258,49.281C33.265,49.281 33.272,49.281 33.279,49.281C33.711,49.281 34.139,49.2 34.538,49.048L35.303,51.329L33.45,57.613L32.588,59.741C31.296,59.343 29.951,59.142 28.599,59.143C21.146,59.143 15.083,65.176 15.083,72.593C15.083,75.039 15.745,77.331 16.896,79.31L13.957,79.31L13.957,81.562L18.537,81.562C19.832,82.999 21.419,84.143 23.192,84.917C24.897,85.661 26.738,86.045 28.599,86.043C30.521,86.043 32.349,85.639 34.006,84.917C35.779,84.143 37.366,82.999 38.661,81.562L61.338,81.562C62.633,82.999 64.22,84.143 65.993,84.917C67.698,85.661 69.539,86.045 71.4,86.043C73.322,86.043 75.15,85.639 76.807,84.917C78.58,84.143 80.167,82.999 81.462,81.562L86.042,81.562L86.042,79.31L83.103,79.31L83.103,79.309ZM71.4,61.395C77.61,61.395 82.663,66.418 82.663,72.592C82.663,75.113 81.81,77.435 80.39,79.309L62.41,79.309C61.479,78.083 60.813,76.678 60.453,75.181L68.396,74.127C68.975,75.25 70.137,75.959 71.401,75.96C73.251,75.961 74.775,74.443 74.78,72.593C74.774,70.745 73.251,69.227 71.403,69.227C71.155,69.227 70.909,69.254 70.667,69.308L66.427,62.561C67.973,61.795 69.675,61.396 71.4,61.395ZM32.897,46.971C32.557,46.869 32.274,46.631 32.115,46.314C31.906,45.895 31.944,45.393 32.215,45.011C32.317,44.865 32.448,44.737 32.61,44.641L34.08,43.838L35.363,46.083L34.809,46.381L33.924,46.856C33.613,47.035 33.24,47.077 32.897,46.971ZM36.058,42.759L40.692,40.232L42.166,37.005L42.635,37.239L45.011,38.422L43.301,41.825L37.348,45.018L36.056,42.76L36.058,42.759ZM43.067,19.04C44.297,19.04 45.38,19.865 45.906,21.089L40.228,21.089C40.754,19.865 41.836,19.04 43.067,19.04ZM46.225,23.342C46.164,23.788 46.03,24.221 45.827,24.623C45.488,24.771 45.179,24.98 44.916,25.24L43.781,26.369C43.551,26.43 43.313,26.466 43.067,26.466C41.477,26.466 40.152,25.111 39.909,23.342L46.225,23.342ZM44.877,31.071L44.752,30.662C44.586,30.121 44.436,29.576 44.303,29.026L45.016,28.317L46.504,26.837C46.668,26.674 46.897,26.594 47.127,26.621C47.151,26.624 47.179,26.624 47.204,26.626C47.509,26.65 47.892,26.647 48.335,26.638C49.647,26.62 51.436,26.579 52.69,27.549C53.694,28.326 54.664,29.145 55.599,30.004L55.6,30.005C55.884,30.266 56.161,30.526 56.428,30.786C58.798,33.082 60.532,35.296 61.778,37.189C61.508,37.374 61.225,37.538 60.93,37.679C59.089,38.572 55.179,39.502 48.991,36.3L48.681,36.14L51.068,31.392L49.055,30.38L46.725,35.016L46.725,35.015L46.025,36.406L43.104,34.953L44.877,31.071ZM55.983,26.043C56.037,25.749 56.203,25.494 56.449,25.325L69.423,16.409C69.932,16.058 70.639,16.186 70.993,16.693L71.628,17.607L56.805,27.795L56.164,26.872C55.995,26.631 55.93,26.332 55.983,26.043ZM80.593,30.511L66.144,40.44C65.132,38.12 62.876,33.964 58.327,29.482L72.914,19.457L80.593,30.511ZM65.781,49.072C66.392,49.072 66.895,49.575 66.895,50.186C66.895,50.797 66.392,51.3 65.781,51.3L63.96,51.3C64.476,50.58 64.958,49.837 65.403,49.071L65.781,49.071L65.781,49.072ZM60.137,72.592C60.137,68.997 61.857,65.801 64.514,63.751L68.756,70.502C68.431,70.909 68.204,71.386 68.095,71.895L60.155,72.948C60.151,72.828 60.137,72.712 60.137,72.592ZM71.406,73.706L71.394,73.706C70.782,73.706 70.277,73.204 70.274,72.592C70.277,71.98 70.782,71.478 71.394,71.478L71.406,71.478C72.018,71.478 72.523,71.98 72.526,72.592C72.523,73.204 72.018,73.706 71.406,73.706ZM36.563,47.997L44.995,43.472L47.324,38.838C49.499,41.167 52.513,44.716 53.643,46.056L51.558,50.179L37.294,50.179L36.563,47.997ZM48.467,56.293L48.467,56.295C47.88,57.467 47.663,58.79 47.844,60.088L40.147,52.431L50.419,52.431L48.467,56.293ZM62.951,39.11C64.226,41.378 64.661,42.844 64.663,42.844C64.677,42.924 64.681,43.012 64.691,43.094C64.71,43.239 64.732,43.382 64.74,43.536L64.685,43.551C64.111,43.704 63.533,43.848 62.954,43.981L62.833,44.008C62.496,44.084 62.159,44.156 61.821,44.225C61.502,44.289 61.171,44.35 60.834,44.41L60.618,44.447C60.277,44.505 59.928,44.561 59.572,44.613L59.409,44.635C59.078,44.681 58.742,44.724 58.402,44.761L58.213,44.783C57.385,44.869 56.555,44.926 55.723,44.952L55.656,44.953C54.168,43.179 52.658,41.423 51.127,39.686C53.346,40.478 55.278,40.783 56.909,40.783C59.321,40.783 61.087,40.144 62.222,39.542C62.504,39.391 62.748,39.244 62.951,39.11ZM37.295,52.776L49.26,64.677L50.848,69.416L36.694,55.336L37.295,52.776ZM52.721,72.867L53.168,72.507L53.868,72.42L56.573,72.083L57.331,71.989L57.487,72.762L57.593,73.288L57.754,74.087L57.932,74.971L56.768,75.068L53.602,75.331L53.438,75.345L49.395,75.681C49.379,75.681 49.325,75.691 49.277,75.646L51.84,73.579L52.721,72.867ZM59.395,53.553L59.09,53.935L58.994,54.056L58.674,54.457C58.105,55.17 57.536,55.886 56.989,56.604C56.328,57.459 55.698,58.338 55.1,59.238L54.846,59.624L56.714,68.912L56.887,69.773L56.082,69.873L54.662,70.05L53.486,70.196L52.824,68.221L52.025,65.837L51.226,63.454L50.243,60.521C49.892,59.463 49.976,58.307 50.476,57.311L52.942,52.431L54.081,50.179L55.582,47.208L55.703,47.203C56.055,47.194 56.406,47.181 56.755,47.161L57,47.144C57.293,47.125 57.585,47.102 57.873,47.076L58.155,47.05C58.443,47.022 58.726,46.99 59.008,46.955C59.071,46.947 59.135,46.941 59.198,46.934L59.319,46.918C59.554,46.887 59.785,46.853 60.015,46.819L60.254,46.785L60.476,46.75C61.184,46.638 61.89,46.509 62.592,46.363C63.178,46.241 63.763,46.108 64.344,45.964L64.383,45.955C64.279,46.249 64.16,46.538 64.028,46.82C63.857,47.188 63.661,47.564 63.442,47.946C63.23,48.317 62.997,48.693 62.747,49.073C62.274,49.786 61.779,50.484 61.261,51.166C60.648,51.969 60.026,52.765 59.395,53.553ZM63.306,61.827C61.27,63.346 59.703,65.408 58.784,67.776L57.239,60.092C57.663,59.466 58.162,58.781 58.78,57.969C59.16,57.471 59.551,56.974 59.944,56.477L63.306,61.827ZM35.574,58.354L35.792,57.618L50.232,71.98L47.257,74.378L47.148,74.651C46.829,75.434 46.952,76.33 47.471,76.997C47.915,77.584 48.609,77.932 49.346,77.937C49.438,77.937 49.532,77.931 49.625,77.919L58.689,77.167C58.962,77.914 59.301,78.63 59.696,79.309L40.302,79.309C41.491,77.27 42.117,74.952 42.115,72.592C42.115,67.348 39.082,62.799 34.672,60.582L35.574,58.354ZM17.336,72.592C17.336,66.418 22.389,61.395 28.599,61.395C29.689,61.395 30.739,61.557 31.736,61.846L28.745,69.233C28.696,69.231 28.649,69.226 28.599,69.226C26.749,69.225 25.225,70.743 25.22,72.593C25.225,74.443 26.749,75.961 28.599,75.96C30.449,75.961 31.973,74.443 31.978,72.593C31.977,71.628 31.559,70.709 30.833,70.073L33.823,62.681C37.408,64.557 39.863,68.293 39.863,72.592C39.863,75.113 39.01,77.435 37.59,79.309L19.609,79.309C18.137,77.38 17.338,75.019 17.336,72.592ZM28.593,71.478L28.605,71.478C29.217,71.478 29.722,71.98 29.725,72.592C29.722,73.204 29.217,73.706 28.605,73.706L28.593,73.706C27.981,73.706 27.476,73.204 27.473,72.592C27.476,71.98 27.981,71.478 28.593,71.478ZM28.599,83.789C26.082,83.789 23.762,82.954 21.885,81.56L35.314,81.56C33.375,83.007 31.019,83.789 28.599,83.789ZM71.4,83.789C68.882,83.789 66.563,82.954 64.686,81.56L78.114,81.56C76.175,83.007 73.819,83.789 71.4,83.789Z" style="fill-rule:nonzero;"/>
    </g>
</svg>
